<mxfile host="app.diagrams.net" modified="2021-08-31T15:00:49.672Z" agent="5.0 (Windows NT 10.0; Win64; x64) AppleWebKit/537.36 (KHTML, like Gecko) Chrome/92.0.4515.159 Safari/537.36" etag="oV9zXfMJ49Xhr8bo70x8" version="15.0.3" type="github">
  <diagram id="qyMruXw6N58mbJ0boBMm" name="Page-1">
    <mxGraphModel dx="868" dy="393" grid="1" gridSize="10" guides="1" tooltips="1" connect="1" arrows="1" fold="1" page="1" pageScale="1" pageWidth="827" pageHeight="1169" math="0" shadow="0">
      <root>
        <mxCell id="0" />
        <mxCell id="1" parent="0" />
        <mxCell id="BaN6ShETZUERFm25YfsU-1" value="" style="rounded=0;whiteSpace=wrap;html=1;" parent="1" vertex="1">
          <mxGeometry x="30" y="30" width="750" height="800" as="geometry" />
        </mxCell>
        <mxCell id="BaN6ShETZUERFm25YfsU-2" value="" style="rounded=0;whiteSpace=wrap;html=1;" parent="1" vertex="1">
          <mxGeometry x="60" y="40" width="510" height="780" as="geometry" />
        </mxCell>
        <mxCell id="BaN6ShETZUERFm25YfsU-3" value="&lt;font style=&quot;font-size: 16px&quot;&gt;Nutzer&lt;/font&gt;" style="shape=umlActor;verticalLabelPosition=bottom;verticalAlign=top;html=1;outlineConnect=0;" parent="1" vertex="1">
          <mxGeometry x="650" y="320" width="30" height="60" as="geometry" />
        </mxCell>
        <mxCell id="BaN6ShETZUERFm25YfsU-4" value="Eintragen" style="edgeStyle=orthogonalEdgeStyle;rounded=0;sketch=1;orthogonalLoop=1;jettySize=auto;html=1;exitX=1;exitY=0.5;exitDx=0;exitDy=0;endArrow=block;endFill=0;startSize=6;endSize=21;sourcePerimeterSpacing=0;strokeWidth=1;entryX=0.5;entryY=0.5;entryDx=0;entryDy=0;entryPerimeter=0;" parent="1" target="BaN6ShETZUERFm25YfsU-26" edge="1">
          <mxGeometry x="-0.3305" relative="1" as="geometry">
            <mxPoint x="657" y="90" as="targetPoint" />
            <mxPoint x="432.00000000000387" y="90" as="sourcePoint" />
            <mxPoint x="-1" as="offset" />
          </mxGeometry>
        </mxCell>
        <mxCell id="BaN6ShETZUERFm25YfsU-5" value="Meldung Erstellen" style="ellipse;whiteSpace=wrap;html=1;" parent="1" vertex="1">
          <mxGeometry x="320" y="50" width="120" height="80" as="geometry" />
        </mxCell>
        <mxCell id="BaN6ShETZUERFm25YfsU-6" value="Meldung Bewerten" style="ellipse;whiteSpace=wrap;html=1;" parent="1" vertex="1">
          <mxGeometry x="320" y="310" width="120" height="80" as="geometry" />
        </mxCell>
        <mxCell id="BaN6ShETZUERFm25YfsU-7" value="" style="endArrow=none;html=1;exitX=1;exitY=0.5;exitDx=0;exitDy=0;entryX=0.5;entryY=0.5;entryDx=0;entryDy=0;entryPerimeter=0;" parent="1" source="BaN6ShETZUERFm25YfsU-5" target="BaN6ShETZUERFm25YfsU-3" edge="1">
          <mxGeometry width="50" height="50" relative="1" as="geometry">
            <mxPoint x="490" y="260" as="sourcePoint" />
            <mxPoint x="540" y="210" as="targetPoint" />
          </mxGeometry>
        </mxCell>
        <mxCell id="BaN6ShETZUERFm25YfsU-8" value="" style="endArrow=none;html=1;exitX=1;exitY=0.5;exitDx=0;exitDy=0;entryX=0.5;entryY=0.5;entryDx=0;entryDy=0;entryPerimeter=0;" parent="1" source="BaN6ShETZUERFm25YfsU-6" target="BaN6ShETZUERFm25YfsU-3" edge="1">
          <mxGeometry width="50" height="50" relative="1" as="geometry">
            <mxPoint x="450.00000000000387" y="260" as="sourcePoint" />
            <mxPoint x="675" y="210" as="targetPoint" />
          </mxGeometry>
        </mxCell>
        <mxCell id="BaN6ShETZUERFm25YfsU-9" value="Meldung Bearbeiten" style="ellipse;whiteSpace=wrap;html=1;" parent="1" vertex="1">
          <mxGeometry x="320" y="440" width="120" height="80" as="geometry" />
        </mxCell>
        <mxCell id="BaN6ShETZUERFm25YfsU-10" value="Extends" style="endArrow=open;dashed=1;endFill=0;endSize=12;html=1;sketch=1;entryX=0.5;entryY=0;entryDx=0;entryDy=0;exitX=0.5;exitY=1;exitDx=0;exitDy=0;" parent="1" source="BaN6ShETZUERFm25YfsU-21" target="BaN6ShETZUERFm25YfsU-6" edge="1">
          <mxGeometry x="-0.2" width="160" relative="1" as="geometry">
            <mxPoint x="400" y="270" as="sourcePoint" />
            <mxPoint x="380" y="310" as="targetPoint" />
            <mxPoint as="offset" />
          </mxGeometry>
        </mxCell>
        <mxCell id="BaN6ShETZUERFm25YfsU-11" value="Extends" style="endArrow=open;endFill=0;endSize=12;html=1;sketch=1;exitX=0;exitY=0.5;exitDx=0;exitDy=0;entryX=0;entryY=0.5;entryDx=0;entryDy=0;dashed=1;" parent="1" source="BaN6ShETZUERFm25YfsU-21" target="BaN6ShETZUERFm25YfsU-9" edge="1">
          <mxGeometry x="-0.0322" y="5" width="160" relative="1" as="geometry">
            <mxPoint x="280.0000000000002" y="200" as="sourcePoint" />
            <mxPoint x="280.0000000000002" y="270" as="targetPoint" />
            <Array as="points">
              <mxPoint x="80" y="350" />
            </Array>
            <mxPoint as="offset" />
          </mxGeometry>
        </mxCell>
        <mxCell id="BaN6ShETZUERFm25YfsU-12" value="Extends" style="endArrow=open;dashed=1;endFill=0;endSize=12;html=1;exitX=0.5;exitY=1;exitDx=0;exitDy=0;entryX=0.5;entryY=0;entryDx=0;entryDy=0;" parent="1" source="BaN6ShETZUERFm25YfsU-9" target="BaN6ShETZUERFm25YfsU-13" edge="1">
          <mxGeometry width="160" relative="1" as="geometry">
            <mxPoint x="190" y="570" as="sourcePoint" />
            <mxPoint x="380" y="610" as="targetPoint" />
          </mxGeometry>
        </mxCell>
        <mxCell id="BaN6ShETZUERFm25YfsU-13" value="Meldung Löschen" style="ellipse;whiteSpace=wrap;html=1;" parent="1" vertex="1">
          <mxGeometry x="320" y="570" width="120" height="80" as="geometry" />
        </mxCell>
        <mxCell id="BaN6ShETZUERFm25YfsU-14" value="" style="endArrow=none;html=1;exitX=1;exitY=0.5;exitDx=0;exitDy=0;entryX=0.5;entryY=0.5;entryDx=0;entryDy=0;entryPerimeter=0;" parent="1" source="BaN6ShETZUERFm25YfsU-9" target="BaN6ShETZUERFm25YfsU-3" edge="1">
          <mxGeometry width="50" height="50" relative="1" as="geometry">
            <mxPoint x="432.42640687119797" y="331.7157287525347" as="sourcePoint" />
            <mxPoint x="670" y="200" as="targetPoint" />
          </mxGeometry>
        </mxCell>
        <mxCell id="BaN6ShETZUERFm25YfsU-15" value="&lt;div&gt;Berwertung Löschen&lt;/div&gt;" style="ellipse;whiteSpace=wrap;html=1;" parent="1" vertex="1">
          <mxGeometry x="170" y="310" width="120" height="80" as="geometry" />
        </mxCell>
        <mxCell id="BaN6ShETZUERFm25YfsU-16" value="Extends" style="endArrow=open;dashed=1;endFill=0;endSize=12;html=1;exitX=0;exitY=0.5;exitDx=0;exitDy=0;entryX=1;entryY=0.5;entryDx=0;entryDy=0;" parent="1" source="BaN6ShETZUERFm25YfsU-6" target="BaN6ShETZUERFm25YfsU-15" edge="1">
          <mxGeometry x="-0.3333" y="-30" width="160" relative="1" as="geometry">
            <mxPoint x="390.0000000000002" y="550" as="sourcePoint" />
            <mxPoint x="390" y="620" as="targetPoint" />
            <mxPoint as="offset" />
          </mxGeometry>
        </mxCell>
        <mxCell id="BaN6ShETZUERFm25YfsU-17" value="&lt;font style=&quot;font-size: 16px&quot;&gt;Admin&lt;/font&gt;" style="shape=umlActor;verticalLabelPosition=bottom;verticalAlign=top;html=1;outlineConnect=0;" parent="1" vertex="1">
          <mxGeometry x="650" y="710" width="30" height="60" as="geometry" />
        </mxCell>
        <mxCell id="BaN6ShETZUERFm25YfsU-18" value="Administrieren" style="ellipse;whiteSpace=wrap;html=1;" parent="1" vertex="1">
          <mxGeometry x="320" y="700" width="120" height="80" as="geometry" />
        </mxCell>
        <mxCell id="BaN6ShETZUERFm25YfsU-19" value="" style="endArrow=none;html=1;startSize=6;endSize=6;entryX=0.5;entryY=0.5;entryDx=0;entryDy=0;entryPerimeter=0;exitX=1;exitY=0.5;exitDx=0;exitDy=0;" parent="1" source="BaN6ShETZUERFm25YfsU-18" target="BaN6ShETZUERFm25YfsU-17" edge="1">
          <mxGeometry width="50" height="50" relative="1" as="geometry">
            <mxPoint x="380" y="580" as="sourcePoint" />
            <mxPoint x="430" y="530" as="targetPoint" />
          </mxGeometry>
        </mxCell>
        <mxCell id="BaN6ShETZUERFm25YfsU-20" value="" style="endArrow=block;html=1;startSize=6;endSize=21;endFill=0;strokeWidth=1;sourcePerimeterSpacing=0;entryX=0.5;entryY=0.5;entryDx=0;entryDy=0;entryPerimeter=0;exitX=0.5;exitY=0.5;exitDx=0;exitDy=0;exitPerimeter=0;" parent="1" source="BaN6ShETZUERFm25YfsU-17" target="BaN6ShETZUERFm25YfsU-3" edge="1">
          <mxGeometry width="50" height="50" relative="1" as="geometry">
            <mxPoint x="665" y="390" as="sourcePoint" />
            <mxPoint x="665" y="710" as="targetPoint" />
            <Array as="points">
              <mxPoint x="750" y="360" />
            </Array>
          </mxGeometry>
        </mxCell>
        <mxCell id="BaN6ShETZUERFm25YfsU-21" value="Meldung Anzeigen" style="ellipse;whiteSpace=wrap;html=1;" parent="1" vertex="1">
          <mxGeometry x="320" y="180" width="120" height="80" as="geometry" />
        </mxCell>
        <mxCell id="BaN6ShETZUERFm25YfsU-22" value="Extends" style="endArrow=open;dashed=1;endFill=0;endSize=12;html=1;sketch=1;entryX=0.5;entryY=0;entryDx=0;entryDy=0;exitX=0.5;exitY=1;exitDx=0;exitDy=0;" parent="1" source="BaN6ShETZUERFm25YfsU-5" target="BaN6ShETZUERFm25YfsU-21" edge="1">
          <mxGeometry x="-0.2" width="160" relative="1" as="geometry">
            <mxPoint x="390" y="270" as="sourcePoint" />
            <mxPoint x="390" y="320" as="targetPoint" />
            <mxPoint as="offset" />
          </mxGeometry>
        </mxCell>
        <mxCell id="BaN6ShETZUERFm25YfsU-23" value="" style="endArrow=none;html=1;exitX=1;exitY=0.5;exitDx=0;exitDy=0;entryX=0.5;entryY=0.5;entryDx=0;entryDy=0;entryPerimeter=0;" parent="1" source="BaN6ShETZUERFm25YfsU-21" target="BaN6ShETZUERFm25YfsU-3" edge="1">
          <mxGeometry width="50" height="50" relative="1" as="geometry">
            <mxPoint x="430" y="270" as="sourcePoint" />
            <mxPoint x="655" y="270" as="targetPoint" />
          </mxGeometry>
        </mxCell>
        <mxCell id="BaN6ShETZUERFm25YfsU-24" value="" style="endArrow=none;html=1;exitX=1;exitY=0.5;exitDx=0;exitDy=0;entryX=0.5;entryY=0.5;entryDx=0;entryDy=0;entryPerimeter=0;" parent="1" source="BaN6ShETZUERFm25YfsU-13" target="BaN6ShETZUERFm25YfsU-3" edge="1">
          <mxGeometry width="50" height="50" relative="1" as="geometry">
            <mxPoint x="449.99999999999545" y="490" as="sourcePoint" />
            <mxPoint x="660" y="350" as="targetPoint" />
          </mxGeometry>
        </mxCell>
        <mxCell id="BaN6ShETZUERFm25YfsU-25" value="" style="endArrow=none;html=1;entryX=0.5;entryY=0.5;entryDx=0;entryDy=0;entryPerimeter=0;exitX=0.5;exitY=0;exitDx=0;exitDy=0;" parent="1" source="BaN6ShETZUERFm25YfsU-15" target="BaN6ShETZUERFm25YfsU-3" edge="1">
          <mxGeometry width="50" height="50" relative="1" as="geometry">
            <mxPoint x="450" y="620" as="sourcePoint" />
            <mxPoint x="670" y="350" as="targetPoint" />
            <Array as="points">
              <mxPoint x="290" y="280" />
            </Array>
          </mxGeometry>
        </mxCell>
        <mxCell id="BaN6ShETZUERFm25YfsU-26" value="&lt;font style=&quot;font-size: 16px&quot;&gt;Datenbank&lt;/font&gt;" style="shape=umlActor;verticalLabelPosition=bottom;verticalAlign=top;html=1;outlineConnect=0;" parent="1" vertex="1">
          <mxGeometry x="650" y="60" width="30" height="60" as="geometry" />
        </mxCell>
      </root>
    </mxGraphModel>
  </diagram>
</mxfile>
